<svg width="20" height="21" viewBox="0 0 20 21" fill="none" xmlns="http://www.w3.org/2000/svg">
<path fill-rule="evenodd" clip-rule="evenodd" d="M10.0022 8.92852C8.89226 8.92852 7.99219 9.79204 7.99219 10.8581C7.99219 11.9236 8.89235 12.7877 10.0022 12.7877C11.112 12.7877 12.0122 11.9236 12.0122 10.8581C12.0122 9.79204 11.1122 8.92852 10.0022 8.92852ZM6.74219 10.8581C6.74219 9.129 8.20214 7.72852 10.0022 7.72852C11.8023 7.72852 13.2622 9.129 13.2622 10.8581C13.2622 12.5863 11.8023 13.9877 10.0022 13.9877C8.20201 13.9877 6.74219 12.5863 6.74219 10.8581Z" fill="#717784"/>
<path fill-rule="evenodd" clip-rule="evenodd" d="M4.1466 6.49462C5.64193 5.28096 7.70928 4.41602 10.002 4.41602C12.2942 4.41602 14.3615 5.28028 15.857 6.49366C17.3362 7.69382 18.337 9.30722 18.337 10.8576C18.337 12.408 17.3362 14.0214 15.857 15.2215C14.3615 16.435 12.2942 17.2992 10.002 17.2992C7.70928 17.2992 5.64193 16.4343 4.1466 15.2206C2.66762 14.0202 1.66699 12.4068 1.66699 10.8576C1.66699 9.30842 2.66762 7.69502 4.1466 6.49462ZM4.95364 7.41101C3.64221 8.47541 2.91699 9.78282 2.91699 10.8576C2.91699 11.9324 3.64221 13.2398 4.95364 14.3043C6.24873 15.3554 8.03638 16.0992 10.002 16.0992C11.9673 16.0992 13.755 15.3559 15.0501 14.3051C16.3615 13.241 17.087 11.9336 17.087 10.8576C17.087 9.78162 16.3615 8.47421 15.0501 7.41017C13.755 6.35934 11.9673 5.61602 10.002 5.61602C8.03638 5.61602 6.24873 6.35987 4.95364 7.41101Z" fill="#717784"/>
</svg>
