<svg width="24" height="25" viewBox="0 0 24 25" fill="none" xmlns="http://www.w3.org/2000/svg">
<path fill-rule="evenodd" clip-rule="evenodd" d="M20.8379 14.7171C20.9459 14.1671 20.9999 13.5871 20.9999 13.0071C20.9999 12.6151 20.9739 12.2331 20.9239 11.8601C20.8869 11.5861 20.6429 11.3871 20.3669 11.3871H12.5619C12.2519 11.3871 11.9999 11.6391 11.9999 11.9491V14.1551C11.9999 14.4651 12.2519 14.7171 12.5619 14.7171H16.8369C17.0129 14.7171 17.1419 14.8971 17.0759 15.0601C16.1409 17.3701 13.6859 18.8861 10.9439 18.3791C8.83793 17.9901 7.11193 16.3201 6.65993 14.2271C5.89293 10.6751 8.57693 7.53717 11.9999 7.53717C13.1219 7.53717 14.1619 7.87417 15.0289 8.45117C15.2609 8.60517 15.5639 8.59017 15.7599 8.39117L17.4619 6.65817C17.6939 6.42117 17.6799 6.02717 17.4159 5.82617C15.9749 4.73017 14.1929 4.06417 12.2549 4.01117C7.38293 3.87617 3.16393 7.83417 3.00493 12.7051C2.83793 17.8131 6.93193 22.0071 11.9999 22.0071C16.3829 22.0071 20.0369 18.8671 20.8379 14.7171Z" fill="white"/>
</svg>
